# Tiled2Unity generated file. Do not modify by hand.
# Wavefront file for 'tent_mesh_0004.obj'

# Vertices (Count = 56)
v -96 -48 0
v -112 -48 0
v -112 -32 0
v -96 -32 0
v -80 -48 0
v -96 -48 0
v -96 -32 0
v -80 -32 0
v -64 -48 0
v -80 -48 0
v -80 -32 0
v -64 -32 0
v -48 -48 0
v -64 -48 0
v -64 -32 0
v -48 -32 0
v -32 -48 0
v -48 -48 0
v -48 -32 0
v -32 -32 0
v -16 -48 0
v -32 -48 0
v -32 -32 0
v -16 -32 0
v 0 -48 0
v -16 -48 0
v -16 -32 0
v 0 -32 0
v -96 -64 0
v -112 -64 0
v -112 -48 0
v -96 -48 0
v -64 -64 0
v -80 -64 0
v -80 -48 0
v -64 -48 0
v -48 -64 0
v -64 -64 0
v -64 -48 0
v -48 -48 0
v 0 -64 0
v -16 -64 0
v -16 -48 0
v 0 -48 0
v -96 -80 0
v -112 -80 0
v -112 -64 0
v -96 -64 0
v -64 -80 0
v -80 -80 0
v -80 -64 0
v -64 -64 0
v 0 -80 0
v -16 -80 0
v -16 -64 0
v 0 -64 0

# Texture cooridinates (Count = 28)
vt 0.8605372 0.7756654
vt 0.8770661 0.7756654
vt 0.8770661 0.8060837
vt 0.8605372 0.8060837
vt 0.9132231 0.743346
vt 0.9297521 0.743346
vt 0.9297521 0.7737643
vt 0.9132231 0.7737643
vt 0.8605372 0.743346
vt 0.8770661 0.743346
vt 0.8770661 0.7737643
vt 0.8605372 0.7737643
vt 0.4039256 0.9695817
vt 0.4204545 0.9695817
vt 0.4204545 1
vt 0.4039256 1
vt 0.2107438 0.904943
vt 0.2272727 0.904943
vt 0.2272727 0.9353612
vt 0.2107438 0.9353612
vt 0.8605372 0.7110266
vt 0.8770661 0.7110266
vt 0.8770661 0.7414448
vt 0.8605372 0.7414448
vt 0.3863636 0.6463878
vt 0.4028926 0.6463878
vt 0.4028926 0.6768061
vt 0.3863636 0.6768061

# Normal
vn 0 0 -1

# Mesh description
g tent_mesh_0004

# Faces
f 1/1/1 2/2/1 3/3/1 4/4/1
f 5/5/1 6/6/1 7/7/1 8/8/1
f 9/5/1 10/6/1 11/7/1 12/8/1
f 13/5/1 14/6/1 15/7/1 16/8/1
f 17/5/1 18/6/1 19/7/1 20/8/1
f 21/5/1 22/6/1 23/7/1 24/8/1
f 25/1/1 26/2/1 27/3/1 28/4/1
f 29/9/1 30/10/1 31/11/1 32/12/1
f 33/13/1 34/14/1 35/15/1 36/16/1
f 37/17/1 38/18/1 39/19/1 40/20/1
f 41/9/1 42/10/1 43/11/1 44/12/1
f 45/21/1 46/22/1 47/23/1 48/24/1
f 49/25/1 50/26/1 51/27/1 52/28/1
f 53/21/1 54/22/1 55/23/1 56/24/1

